<?xml version="1.0" encoding="UTF-8"?>
<svg id="_Слой_1" data-name="Слой 1" xmlns="http://www.w3.org/2000/svg" version="1.1" xmlns:xodm="http://www.corel.com/coreldraw/odm/2003" viewBox="0 0 80 80">
  <defs>
    <style>
      .cls-1 {
        fill: #4285f4;
      }

      .cls-1, .cls-2, .cls-3, .cls-4, .cls-5, .cls-6, .cls-7, .cls-8, .cls-9 {
        stroke-width: 0px;
      }

      .cls-2 {
        fill: #3b3d56;
      }

      .cls-2, .cls-9 {
        fill-rule: evenodd;
      }

      .cls-3 {
        fill: #fbbc05;
      }

      .cls-4 {
        fill: #34a853;
      }

      .cls-5 {
        fill: #fff;
      }

      .cls-6 {
        fill: #ea4335;
      }

      .cls-7 {
        fill: #fefefe;
      }

      .cls-8 {
        fill: #eae166;
      }

      .cls-9 {
        fill: #30324d;
      }
    </style>
  </defs>
  <g id="_Слой_1-2" data-name="Слой_1">
    <g id="_2768230082864" data-name=" 2768230082864">
      <g>
        <path class="cls-2" d="M9.6,0h60.9c5.3,0,9.6,4.3,9.6,9.6v60.9c0,5.3-4.3,9.6-9.6,9.6H9.6c-5.3,0-9.6-4.3-9.6-9.6V9.6C0,4.3,4.3,0,9.6,0Z"/>
        <path class="cls-9" d="M9.6,0h60.9c5.3,0,9.6,4.3,9.6,9.6v13.8c-11.6,7.2-25.3,11.4-40,11.4S11.6,30.6,0,23.4v-13.8C0,4.3,4.3,0,9.6,0Z"/>
        <g>
          <polygon class="cls-5" points="17.1 49 15.7 49 15.7 43 20.2 43 20.2 44.3 17.1 44.3 17.1 45.3 20.1 45.3 20.1 46.6 17.1 46.6 17.1 49"/>
          <polygon class="cls-5" points="22.6 49 21.2 49 21.2 43 22.6 43 22.6 49"/>
          <polygon class="cls-5" points="29.6 49 28.2 49 25.4 45.3 25.4 49 24 49 24 43 25.5 43 28.2 46.6 28.2 43 29.6 43 29.6 49"/>
          <path class="cls-5" d="M32.7,43h1.7l2.4,5.9h-1.6l-.4-1h-2.6l-.4,1h-1.6s2.4-5.9,2.4-5.9ZM34.4,46.8l-.9-2.3-.9,2.3h1.8Z"/>
          <polygon class="cls-5" points="43.1 49 41.6 49 38.9 45.3 38.9 49 37.4 49 37.4 43 39 43 41.6 46.6 41.6 43 43.1 43 43.1 49"/>
          <path class="cls-5" d="M47.3,49.1c-.9,0-1.7-.3-2.3-.9-.6-.6-.9-1.3-.9-2.2s.3-1.6.9-2.2c.6-.6,1.4-.9,2.3-.9s1.1.1,1.6.4c.4.3.8.6,1,1.1l-1.2.6c-.1-.2-.3-.4-.6-.6-.2-.2-.5-.2-.8-.2-.5,0-.9.2-1.3.5-.3.3-.5.8-.5,1.3s.2,1,.5,1.3c.3.3.8.5,1.3.5s.6,0,.8-.2c.3-.2.4-.4.6-.6l1.2.5c-.2.5-.6.8-1,1.1-.4.3-1,.4-1.6.4h0Z"/>
          <polygon class="cls-5" points="52.2 49 50.7 49 50.7 43 52.2 43 52.2 49"/>
          <path class="cls-5" d="M55.2,43h1.7l2.4,5.9h-1.6l-.4-1h-2.6l-.4,1h-1.6l2.4-5.9h0ZM57,46.8l-.9-2.3-.9,2.3h1.8Z"/>
          <polygon class="cls-5" points="64 49 60 49 60 43 61.4 43 61.4 47.7 64 47.7 64 49"/>
          <polygon class="cls-8" points="25.9 67.2 15.7 67.2 15.7 52.2 19.3 52.2 19.3 64 25.9 64 25.9 67.2"/>
          <polygon class="cls-8" points="32 67.2 28.4 67.2 28.4 52.2 32 52.2 32 67.2"/>
          <polygon class="cls-8" points="49.6 67.2 45.9 67.2 39 57.8 39 67.2 35.4 67.2 35.4 52.2 39.3 52.2 46 61.3 46 52.2 49.6 52.2 49.6 67.2"/>
          <polygon class="cls-8" points="64.3 67.2 53 67.2 53 52.2 64.3 52.2 64.3 55.3 56.6 55.3 56.6 58 64.1 58 64.1 61.1 56.6 61.1 56.6 64.1 64.3 64.1 64.3 67.2"/>
        </g>
        <g>
          <g>
            <path class="cls-5" d="M43,13.4c.8-.7,1.8-1,2.8-1s2,.5,2.7,1.3c.7.8,1,1.8,1,2.8s-.5,2-1.3,2.7-1.8,1-2.8,1-2-.5-2.7-1.3c-.7-.8-1-1.8-1-2.8s.5-2,1.3-2.7h0ZM45.8,13.3c-.8,0-1.5.2-2.1.7-.6.5-.9,1.3-1,2,0,.8.2,1.5.7,2.1.5.6,1.3.9,2,1s1.5-.2,2.1-.7c.6-.5.9-1.3,1-2,0-.8-.2-1.5-.7-2.1-.5-.6-1.3-.9-2-1Z"/>
            <path class="cls-5" d="M46.5,15.8c-.3,0-.5,0-1.1.2-.2,0-.4.1-.6,0,0,0-.2,0-.2-.1,0,0-.1-.2-.1-.3,0-.1,0-.3.2-.4.1-.1.3-.1.5-.1.1,0,.2,0,.3.2l.5-.4c-.2-.2-.4-.3-.6-.4-.2,0-.5,0-.7,0l-.3-.4-.5.4.3.3c-.1.2-.2.4-.2.6,0,.3,0,.6.3.8.1.2.4.3.5.3.3,0,.5,0,.7,0,.3,0,.6-.2.9-.3.2,0,.3,0,.4.1.1.1.1.2.1.4,0,.2-.1.3-.2.4-.2.1-.4.2-.6.1-.1,0-.2-.1-.3-.2l-.5.4c.2.2.4.3.6.4.3,0,.6,0,.9-.1l.3.4.5-.4-.3-.4c0-.1.2-.3.2-.4.1-.4,0-.7-.2-1-.2-.2-.4-.3-.7-.3h0Z"/>
            <path class="cls-8" d="M31.1,18.2l9.2-8.1c.4-.3.9-.5,1.4-.5.5,0,1,.2,1.3.6l1.5,1.7c-.3,0-.6.2-.9.4l-1.3-1.4c-.2-.2-.4-.3-.7-.3-.2,0-.5,0-.7.2l-9.2,8.1c-.2.2-.3.4-.3.7,0,.2,0,.5.2.7l4.6,5.2c.2.2.4.3.7.3.2,0,.5,0,.7-.2l5.9-5.2c.3.2.7.3,1,.4l-6.3,5.6c-.4.3-.9.5-1.4.5-.5,0-1-.2-1.3-.6l-4.6-5.2c-.3-.4-.5-.9-.5-1.4,0-.5.2-1,.6-1.3h0Z"/>
            <path class="cls-8" d="M37.1,22.1l1-.8c.2-.2.6-.2.8,0l.5.6c.2.2.2.6,0,.8l-1,.8c-.2.2-.6.2-.8,0l-.5-.6c-.2-.2-.2-.6,0-.8Z"/>
            <path class="cls-8" d="M32,21.3l11.3-10,.7.8c-.5.2-1,.5-1.4.8-.9.8-1.4,1.9-1.5,3.1l-7.7,6.9-1.4-1.6h0Z"/>
          </g>
          <path class="cls-7" d="M21.1,16.3c0,0-1.2.7-1.2,2.2s1.5,2.3,1.5,2.3c0,0-.2.8-.8,1.6-.5.7-1,1.4-1.8,1.4s-1-.5-1.9-.5-1.2.5-1.9.5-1.2-.7-1.8-1.5c-.7-.9-1.2-2.4-1.2-3.8,0-2.2,1.4-3.4,2.9-3.4s1.4.5,1.9.5,1.2-.5,2-.5,1.5,0,2.3,1.1h0ZM18.5,14.2c.4-.4.6-1,.6-1.6s0-.2,0-.2c-.6,0-1.3.4-1.7.9-.3.4-.6,1-.6,1.6s0,.2,0,.2c0,0,0,0,.2,0,.5,0,1.2-.3,1.6-.8Z"/>
          <g>
            <path class="cls-1" d="M68,19.1c0-.3,0-.7,0-1h-4.6v1.9h2.6c-.1.6-.5,1.1-1,1.5v1.2h1.6c.9-.8,1.4-2.1,1.4-3.6h0Z"/>
            <path class="cls-4" d="M63.3,23.8c1.3,0,2.4-.4,3.2-1.2l-1.6-1.2c-.4.3-1,.5-1.6.5-1.3,0-2.3-.9-2.7-2h-1.6v1.3c.8,1.6,2.4,2.7,4.3,2.7h0Z"/>
            <path class="cls-3" d="M60.6,19.9c0-.3-.2-.6-.2-.9s0-.6.2-.9v-1.3h-1.6c-.3.7-.5,1.4-.5,2.2s.2,1.5.5,2.2l1.3-1s.4-.3.4-.3Z"/>
            <path class="cls-6" d="M63.3,16c.7,0,1.4.2,1.9.7l1.4-1.4c-.8-.8-1.9-1.3-3.2-1.3-1.9,0-3.5,1.1-4.3,2.7l1.6,1.3c.4-1.1,1.5-2,2.7-2h0Z"/>
          </g>
        </g>
      </g>
    </g>
  </g>
</svg>