<svg width="231" height="21" viewBox="0 0 231 21" fill="none" xmlns="http://www.w3.org/2000/svg">
<g clip-path="url(#clip0_4040_23005)">
<path d="M4.5993 19.9002H0V0.736478H14.4599V4.67376H4.5993V8.19292H14.2509V12.1302H4.5993V19.9002Z" fill="white"/>
<path d="M22.3271 19.9002H17.7278V0.736478H22.3271V19.9002Z" fill="white"/>
<path d="M44.9338 19.9002H40.1952L31.3102 7.91418V19.9002H26.7109V0.736478H31.6586L40.3345 12.3393V0.736478H44.9338V19.9002Z" fill="white"/>
<path d="M54.7052 0.736478H60.3149L68.085 19.9002H62.9282L61.6738 16.7644H53.3115L52.1268 19.9002H46.9352L54.7052 0.736478ZM60.3498 12.7574L57.4926 5.40547L54.6355 12.7574H60.3498Z" fill="white"/>
<path d="M88.3177 19.9002H83.579L74.694 7.91418V19.9002H70.0947V0.736478H75.0425L83.7184 12.3393V0.736478H88.3177V19.9002Z" fill="white"/>
<path d="M102.026 20.3184C99.0298 20.3184 96.5443 19.3892 94.5699 17.5309C92.5954 15.6494 91.6082 13.2452 91.6082 10.3184C91.6082 7.39153 92.5954 4.99896 94.5699 3.14066C96.5443 1.25913 99.0298 0.318359 102.026 0.318359C103.978 0.318359 105.65 0.771321 107.044 1.67725C108.437 2.58317 109.529 3.75622 110.319 5.19641L106.486 7.0431C106.045 6.25332 105.429 5.61453 104.64 5.12672C103.85 4.61569 102.979 4.36017 102.026 4.36017C100.377 4.36017 99.0066 4.92928 97.9148 6.06749C96.8231 7.18247 96.2772 8.59943 96.2772 10.3184C96.2772 12.0373 96.8231 13.4659 97.9148 14.6041C99.0066 15.7191 100.377 16.2765 102.026 16.2765C103.002 16.2765 103.885 16.0326 104.674 15.5448C105.487 15.057 106.091 14.4182 106.486 13.6285L110.319 15.4055C109.552 16.8689 108.461 18.0535 107.044 18.9595C105.65 19.8654 103.978 20.3184 102.026 20.3184Z" fill="white"/>
<path d="M117.67 19.9002H113.07V0.736478H117.67V19.9002Z" fill="white"/>
<path d="M127.454 0.736478H133.064L140.834 19.9002H135.677L134.423 16.7644H126.06L124.876 19.9002H119.684L127.454 0.736478ZM133.099 12.7574L130.241 5.40547L127.384 12.7574H133.099Z" fill="white"/>
<path d="M155.875 19.9002H142.844V0.736478H147.443V15.8933H155.875V19.9002Z" fill="white"/>
<path d="M181.123 19.9006H168.092V0.736816H172.691V15.8936H181.123V19.9006Z" fill="#B6AC23"/>
<path d="M189.024 19.9006H184.425V0.736816H189.024V19.9006Z" fill="#B6AC23"/>
<path d="M211.631 19.9006H206.892L198.007 7.91452V19.9006H193.408V0.736816H198.355L207.031 12.3396V0.736816H211.631V19.9006Z" fill="#B6AC23"/>
<path d="M230.461 19.9006H216.001V0.736816H230.461V4.6741H220.601V8.19326H230.252V12.1305H220.601V15.9633H230.461V19.9006Z" fill="#B6AC23"/>
</g>
<defs>
<clipPath id="clip0_4040_23005">
<rect width="231" height="21" fill="white"/>
</clipPath>
</defs>
</svg>
