<svg width="159" height="15" viewBox="0 0 159 15" fill="none" xmlns="http://www.w3.org/2000/svg">
<path d="M3.17996 13.8064H0.0119629V0.606359H9.97196V3.31836H3.17996V5.74236H9.82796V8.45436H3.17996V13.8064Z" fill="#3B3D56"/>
<path d="M15.3909 13.8064H12.2229V0.606359H15.3909V13.8064Z" fill="#3B3D56"/>
<path d="M30.9624 13.8064H27.6984L21.5784 5.55036V13.8064H18.4104V0.606359H21.8184L27.7944 8.59836V0.606359H30.9624V13.8064Z" fill="#3B3D56"/>
<path d="M37.6929 0.606359H41.5569L46.9089 13.8064H43.3569L42.4929 11.6464H36.7329L35.9169 13.8064H32.3409L37.6929 0.606359ZM41.5809 8.88636L39.6129 3.82236L37.6449 8.88636H41.5809Z" fill="#3B3D56"/>
<path d="M60.8452 13.8064H57.5812L51.4612 5.55036V13.8064H48.2932V0.606359H51.7012L57.6772 8.59836V0.606359H60.8452V13.8064Z" fill="#3B3D56"/>
<path d="M70.2877 14.0944C68.2237 14.0944 66.5117 13.4544 65.1517 12.1744C63.7917 10.8784 63.1117 9.22236 63.1117 7.20636C63.1117 5.19036 63.7917 3.54236 65.1517 2.26236C66.5117 0.96636 68.2237 0.318359 70.2877 0.318359C71.6317 0.318359 72.7837 0.63036 73.7437 1.25436C74.7037 1.87836 75.4557 2.68636 75.9997 3.67836L73.3597 4.95036C73.0557 4.40636 72.6317 3.96636 72.0877 3.63036C71.5437 3.27836 70.9437 3.10236 70.2877 3.10236C69.1517 3.10236 68.2077 3.49436 67.4557 4.27836C66.7037 5.04636 66.3277 6.02236 66.3277 7.20636C66.3277 8.39036 66.7037 9.37436 67.4557 10.1584C68.2077 10.9264 69.1517 11.3104 70.2877 11.3104C70.9597 11.3104 71.5677 11.1424 72.1117 10.8064C72.6717 10.4704 73.0877 10.0304 73.3597 9.48636L75.9997 10.7104C75.4717 11.7184 74.7197 12.5344 73.7437 13.1584C72.7837 13.7824 71.6317 14.0944 70.2877 14.0944Z" fill="#3B3D56"/>
<path d="M81.0628 13.8064H77.8948V0.606359H81.0628V13.8064Z" fill="#3B3D56"/>
<path d="M87.8023 0.606359H91.6663L97.0183 13.8064H93.4663L92.6023 11.6464H86.8423L86.0263 13.8064H82.4503L87.8023 0.606359ZM91.6903 8.88636L89.7223 3.82236L87.7543 8.88636H91.6903Z" fill="#3B3D56"/>
<path d="M107.379 13.8064H98.4026V0.606359H101.571V11.0464H107.379V13.8064Z" fill="#3B3D56"/>
<path d="M124.769 13.8063H115.793V0.606323H118.961V11.0463H124.769V13.8063Z" fill="#756F20"/>
<path d="M130.211 13.8063H127.043V0.606323H130.211V13.8063Z" fill="#756F20"/>
<path d="M145.783 13.8063H142.519L136.399 5.55032V13.8063H133.231V0.606323H136.639L142.615 8.59832V0.606323H145.783V13.8063Z" fill="#756F20"/>
<path d="M158.753 13.8063H148.793V0.606323H158.753V3.31832H151.961V5.74232H158.609V8.45432H151.961V11.0943H158.753V13.8063Z" fill="#756F20"/>
</svg>
